# xmcd
#
# Track frame offsets: 
#        225
#        26554
#        44990
#        68012
#        86974
#        107342
#        133542
#        162155
#        182457
#
# Disc length: 2666 seconds
#
# Revision: 0
# Processed by: cddbd v1.5.2PL0 Copyright (c) Steve Scherf et al.
# Submitted via: ExactAudioCopyFreeDBPlugin 1.0
#
DISCID=740a6709
DTITLE=Teddy Royal - Keep On Moving On...
DYEAR=1995
DGENRE=Blues
TTITLE0=Smooth Talk
TTITLE1=Grits and Gravy
TTITLE2=Domani Ti Amo
TTITLE3=London Blues
TTITLE4=Chickadee
TTITLE5=Keep On Moving On
TTITLE6=Blossoms
TTITLE7=Artie
TTITLE8=Buck's Groove
EXTD=
EXTT0=
EXTT1=
EXTT2=
EXTT3=
EXTT4=
EXTT5=
EXTT6=
EXTT7=
EXTT8=
PLAYORDER=
